<?xml version="1.0" encoding="UTF-8"?>
<svg width="9px" height="16px" viewBox="0 0 9 16" version="1.1" xmlns="http://www.w3.org/2000/svg" xmlns:xlink="http://www.w3.org/1999/xlink">
    <!-- Generator: Sketch 52.4 (67378) - http://www.bohemiancoding.com/sketch -->
    <title>facebook</title>
    <desc>Created with Sketch.</desc>
    <g id="Page-1" stroke="none" stroke-width="1" fill="none" fill-rule="evenodd">
        <g id="Home-HD" transform="translate(-207.000000, -52.000000)" fill="#000000">
            <g id="Nav-light">
                <g id="facebook" transform="translate(207.000000, 52.000000)">
                    <path d="M9,2.69509824 L7.3580262,2.69509824 C6.08191502,2.69509824 5.83837394,3.31200966 5.83837394,4.0984376 L5.83837394,5.89552739 L8.87988245,5.89552739 L8.45341006,8.70220613 L5.83837394,8.70220613 L5.83837394,16 L2.67564589,16 L2.67564589,8.70113324 L-7.10542736e-15,8.70113324 L-7.10542736e-15,5.89552739 L2.67564589,5.89552739 L2.67564589,3.76155033 C2.55442635,1.29175887 4.19640015,2.04281037e-14 6.56789519,2.04281037e-14 C7.66107506,2.04281037e-14 8.63634137,0.1115805 8.93939023,0.1115805 L8.93939023,2.69402535 L9,2.69402535 L9,2.69509824 Z"></path>
                </g>
            </g>
        </g>
    </g>
</svg>