<?xml version="1.0" encoding="utf-8"?>
<!-- Generator: Adobe Illustrator 23.0.0, SVG Export Plug-In . SVG Version: 6.00 Build 0)  -->
<svg version="1.1" id="Layer_1" xmlns="http://www.w3.org/2000/svg" xmlns:xlink="http://www.w3.org/1999/xlink" x="0px" y="0px"
	 viewBox="0 0 18 17" style="enable-background:new 0 0 18 17;" xml:space="preserve">
<style type="text/css">
	.st0{fill-rule:evenodd;clip-rule:evenodd;fill:#FFFFFF;}
</style>
<title>vimeo</title>
<desc>Created with Sketch.</desc>
<g id="Page-1">
	<g id="Home-HD" transform="translate(-164.000000, -51.000000)">
		<g id="Nav-light">
			<g id="vimeo" transform="translate(164.000000, 51.000000)">
				<path class="st0" d="M18,3.9c-0.1,1.9-1.3,4.5-3.7,7.9C11.9,15.3,9.8,17,8.1,17c-1,0-1.9-1.1-2.7-3.2L4,8
					C3.5,5.9,2.9,4.8,2.3,4.8c-0.1,0-0.6,0.3-1.4,0.9L0,4.6C0.9,3.7,1.8,2.9,2.6,2c1.2-1.1,2.1-1.7,2.7-1.8c1.4-0.1,2.3,0.9,2.6,3.1
					c0.4,2.4,0.6,3.9,0.7,4.5c0.4,2,0.8,3,1.3,3c0.4,0,0.9-0.6,1.7-2c0.8-1.3,1.2-2.3,1.2-3c0.1-1.1-0.3-1.7-1.2-1.7
					c-0.4,0-0.9,0.1-1.3,0.3c0.9-3.2,2.6-4.7,5.1-4.6C17.2,0.1,18.1,1.4,18,3.9L18,3.9z"/>
			</g>
		</g>
	</g>
</g>
</svg>
