<?xml version="1.0" encoding="utf-8"?>
<!-- Generator: Adobe Illustrator 23.0.0, SVG Export Plug-In . SVG Version: 6.00 Build 0)  -->
<svg version="1.1" id="Layer_1" xmlns="http://www.w3.org/2000/svg" xmlns:xlink="http://www.w3.org/1999/xlink" x="0px" y="0px"
	 viewBox="0 0 18 18" style="enable-background:new 0 0 18 18;" xml:space="preserve">
<style type="text/css">
	.st0{fill:#FFFFFF;}
</style>
<title>instagram</title>
<desc>Created with Sketch.</desc>
<g id="Page-1">
	<g id="Home-HD" transform="translate(-123.000000, -51.000000)">
		<g id="Nav-light">
			<g id="instagram" transform="translate(123.000000, 51.000000)">
				<g id="Shape">
					<path class="st0" d="M16.3,12.6c0,0.9-0.2,1.4-0.3,1.7c-0.2,0.4-0.4,0.7-0.7,1c-0.3,0.3-0.6,0.5-1,0.7
						c-0.3,0.1-0.8,0.3-1.7,0.3c-0.9,0-1.2,0.1-3.6,0.1c-2.4,0-2.7,0-3.6-0.1c-0.9,0-1.4-0.2-1.7-0.3c-0.4-0.1-0.7-0.4-1-0.7
						c-0.3-0.3-0.5-0.6-0.7-1c-0.1-0.3-0.3-0.8-0.3-1.7c0-0.9-0.1-1.2-0.1-3.6c0-2.4,0-2.7,0.1-3.6C1.7,4.5,1.9,4,2,3.7
						c0.2-0.4,0.4-0.7,0.7-1C3,2.4,3.3,2.2,3.7,2C4,1.9,4.5,1.7,5.4,1.7c0.9,0,1.2-0.1,3.6-0.1c2.4,0,2.7,0,3.6,0.1
						c0.9,0,1.4,0.2,1.7,0.3c0.4,0.2,0.7,0.4,1,0.7c0.3,0.3,0.5,0.6,0.7,1c0.1,0.3,0.3,0.8,0.3,1.7c0,0.9,0.1,1.2,0.1,3.6
						C16.4,11.4,16.3,11.7,16.3,12.6 M17.9,5.3c0-1-0.2-1.6-0.4-2.2c-0.2-0.6-0.6-1.1-1-1.6c-0.4-0.5-1-0.8-1.6-1
						c-0.6-0.2-1.2-0.4-2.2-0.4C11.7,0,11.4,0,9,0C6.5,0,6.2,0,5.3,0.1c-1,0-1.6,0.2-2.2,0.4C2.5,0.7,2,1.1,1.5,1.5
						c-0.5,0.4-0.8,1-1,1.6C0.2,3.7,0.1,4.4,0.1,5.3C0,6.3,0,6.6,0,9c0,2.4,0,2.7,0.1,3.7c0,1,0.2,1.6,0.4,2.2
						c0.2,0.6,0.6,1.1,1,1.6c0.4,0.5,1,0.8,1.6,1c0.6,0.2,1.2,0.4,2.2,0.4C6.2,18,6.5,18,9,18s2.7,0,3.7-0.1c1,0,1.6-0.2,2.2-0.4
						c0.6-0.2,1.1-0.6,1.6-1c0.5-0.4,0.8-1,1-1.6c0.2-0.6,0.4-1.2,0.4-2.2c0-1,0.1-1.3,0.1-3.7S18,6.3,17.9,5.3"/>
					<path class="st0" d="M9,12C8,12,7,11.4,6.4,10.5c-0.5-0.9-0.5-2.1,0-3S8,5.9,9,5.9c1.7,0,3,1.4,3,3S10.7,12,9,12 M9,4.3
						C6.5,4.3,4.4,6.4,4.4,9s2.1,4.7,4.7,4.7s4.7-2.1,4.7-4.7S11.6,4.3,9,4.3 M14.1,2.7c-0.4,0-0.8,0.2-1,0.6s-0.2,0.8,0,1.2
						s0.6,0.6,1,0.6c0.6,0,1.2-0.5,1.2-1.2S14.7,2.7,14.1,2.7"/>
				</g>
			</g>
		</g>
	</g>
</g>
</svg>
