<?xml version="1.0" encoding="UTF-8"?>
<svg width="18px" height="18px" viewBox="0 0 18 18" version="1.1" xmlns="http://www.w3.org/2000/svg" xmlns:xlink="http://www.w3.org/1999/xlink">
    <!-- Generator: Sketch 52.4 (67378) - http://www.bohemiancoding.com/sketch -->
    <title>instagram</title>
    <desc>Created with Sketch.</desc>
    <g id="Page-1" stroke="none" stroke-width="1" fill="none" fill-rule="evenodd">
        <g id="Home-HD" transform="translate(-123.000000, -51.000000)" fill="#000000">
            <g id="Nav-light">
                <g id="instagram" transform="translate(123.000000, 51.000000)">
                    <g id="Shape">
                        <path d="M16.3005,12.645 C16.26,13.521 16.11375,13.99725 15.99075,14.31375 C15.828,14.73375 15.633,15.03225 15.31875,15.34725 C15.00375,15.6615 14.7045,15.8565 14.28525,16.01925 C13.96875,16.14225 13.49325,16.28925 12.6165,16.32825 C11.66925,16.37175 11.385,16.38075 8.98575,16.38075 C6.58575,16.38075 6.30225,16.37175 5.355,16.32825 C4.479,16.2885 4.00275,16.14225 3.68625,16.01925 C3.29586142,15.8752956 2.94270445,15.6456667 2.65275,15.34725 C2.35437284,15.057263 2.12475014,14.7041156 1.98075,14.31375 C1.85775,13.99725 1.71075,13.521 1.67175,12.645 C1.62825,11.69775 1.61925,11.4135 1.61925,9.01425 C1.61925,6.61425 1.62825,6.33075 1.67175,5.38275 C1.7115,4.50675 1.85775,4.03125 1.98075,3.71475 C2.1435,3.29475 2.3385,2.9955 2.65275,2.68125 C2.96775,2.36625 3.267,2.172 3.68625,2.00925 C4.00275,1.88625 4.479,1.73925 5.355,1.6995 C6.30225,1.65675 6.5865,1.647 8.98575,1.647 C11.38575,1.647 11.66925,1.65675 12.6165,1.6995 C13.49325,1.74 13.96875,1.88625 14.28525,2.00925 C14.70525,2.172 15.0045,2.367 15.31875,2.68125 C15.63375,2.99625 15.828,3.2955 15.99075,3.71475 C16.11375,4.03125 16.26075,4.50675 16.3005,5.38275 C16.34325,6.33075 16.353,6.615 16.353,9.01425 C16.353,11.41425 16.34325,11.69775 16.3005,12.645 M17.9175,5.31 C17.874,4.353 17.7225,3.69975 17.49975,3.1275 C17.2739971,2.52820674 16.920281,1.98534723 16.46325,1.53675 C16.0146681,1.07970028 15.4718042,0.725981319 14.8725,0.50025 C14.30025,0.2775 13.647,0.126 12.69075,0.0825 C11.73225,0.039 11.42625,0.0285 8.985,0.0285 C6.5445,0.0285 6.2385,0.039 5.28,0.0825 C4.32375,0.126 3.6705,0.2775 3.099,0.50025 C2.49942751,0.725884779 1.95629909,1.07960932 1.5075,1.53675 C1.05073976,1.98542116 0.697283235,2.5282751 0.47175,3.1275 C0.24975,3.69975 0.0975,4.353 0.054,5.30925 C0.0105,6.26775 5.32907052e-14,6.57375 5.32907052e-14,9.015 C5.32907052e-14,11.4555 0.0105,11.7615 0.054,12.72 C0.0975,13.67625 0.249,14.3295 0.47175,14.901 C0.697406397,15.5005616 1.05112807,16.0436856 1.50825,16.4925 C1.95704909,16.9496407 2.50017751,17.3033652 3.09975,17.529 C3.67125,17.751 4.3245,17.90325 5.28075,17.94675 C6.23925,17.99025 6.54525,18.00075 8.98575,18.00075 C11.42625,18.00075 11.73225,17.99025 12.69075,17.94675 C13.647,17.90325 14.30025,17.75175 14.87175,17.529 C15.4713225,17.3033652 16.0144509,16.9496407 16.46325,16.4925 C16.9203719,16.0436856 17.2740936,15.5005616 17.49975,14.901 C17.72175,14.3295 17.874,13.67625 17.9175,12.72 C17.961,11.7615 17.9715,11.4555 17.9715,9.015 C17.9715,6.5745 17.961,6.2685 17.9175,5.31" fill-rule="nonzero"></path>
                        <path d="M9.03896104,11.9961039 C7.95463676,11.9961039 6.9526798,11.4176238 6.41051765,10.4785714 C5.8683555,9.53951908 5.8683555,8.38255884 6.41051765,7.44350648 C6.9526798,6.50445411 7.95463676,5.925974 9.03896104,5.92597403 C10.7151811,5.92597403 12.074026,7.28481888 12.074026,8.96103896 C12.074026,10.637259 10.7151811,11.9961039 9.03896104,11.9961039 M9.03896104,4.28571429 C6.45685052,4.28571429 4.36363636,6.37892844 4.36363636,8.96103896 C4.36363636,11.5431495 6.45685052,13.6363636 9.03896104,13.6363636 C11.6210716,13.6363636 13.7142857,11.5431495 13.7142857,8.96103896 C13.7142857,6.37892844 11.6210716,4.28571429 9.03896104,4.28571429 M14.1038961,2.72727273 C13.6863129,2.72727272 13.3004502,2.95005068 13.0916586,3.3116883 C12.882867,3.67332593 12.882867,4.11888186 13.0916586,4.48051949 C13.3004502,4.84215711 13.6863129,5.06493507 14.1038961,5.06493506 C14.7494237,5.06493506 15.2727273,4.54163153 15.2727273,3.8961039 C15.2727273,3.25057627 14.7494237,2.72727273 14.1038961,2.72727273" fill-rule="nonzero"></path>
                    </g>
                </g>
            </g>
        </g>
    </g>
</svg>