<?xml version="1.0" encoding="utf-8"?>
<!-- Generator: Adobe Illustrator 23.0.0, SVG Export Plug-In . SVG Version: 6.00 Build 0)  -->
<svg version="1.1" id="Layer_1" xmlns="http://www.w3.org/2000/svg" xmlns:xlink="http://www.w3.org/1999/xlink" x="0px" y="0px"
	 viewBox="0 0 20 24" style="enable-background:new 0 0 20 24;" xml:space="preserve">
<style type="text/css">
	.st0{display:none;}
	.st1{display:inline;}
	.st2{fill:#FFFFFF;}
</style>
<g id="_x30_1" class="st0">
	<g id="Home-HD" transform="translate(-207.000000, -52.000000)" class="st1">
		<g id="Nav-light">
			<g id="facebook" transform="translate(207.000000, 52.000000)">
				<path class="st2" d="M14.5,6.7h-1.6c-1.3,0-1.5,0.6-1.5,1.4v1.8h3L14,12.7h-2.7V20H8.2v-7.3H5.5V9.9h2.7V7.8
					C8.1,5.3,9.7,4,12.1,4c1.1,0,2.1,0.1,2.4,0.1V6.7L14.5,6.7L14.5,6.7z"/>
			</g>
		</g>
	</g>
</g>
<g id="Page-1">
	<g id="Home-HD_1_" transform="translate(-123.000000, -51.000000)">
		<g id="Nav-light_1_">
			<g id="instagram" transform="translate(123.000000, 51.000000)">
				<g id="Shape">
					<path class="st2" d="M18.1,16c0,1-0.2,1.5-0.3,1.9c-0.2,0.4-0.4,0.8-0.8,1.1c-0.3,0.3-0.7,0.6-1.1,0.8
						c-0.3,0.1-0.9,0.3-1.9,0.3s-1.3,0.1-4,0.1s-3,0-4-0.1c-1,0-1.5-0.2-1.9-0.3C3.7,19.6,3.4,19.3,3,19c-0.3-0.3-0.6-0.7-0.8-1.1
						C2.1,17.5,1.9,17,1.9,16c0-1-0.1-1.3-0.1-4s0-3,0.1-4c0-1,0.2-1.5,0.3-1.9C2.5,5.7,2.7,5.4,3,5c0.3-0.3,0.7-0.6,1.1-0.8
						C4.5,4.1,5,3.9,6,3.9s1.3-0.1,4-0.1s3,0,4,0.1c1,0,1.5,0.2,1.9,0.3C16.3,4.5,16.6,4.7,17,5c0.3,0.3,0.6,0.7,0.8,1.1
						C17.9,6.5,18.1,7,18.1,8s0.1,1.3,0.1,4S18.1,15,18.1,16 M19.8,7.9c0-1.1-0.2-1.8-0.4-2.4c-0.2-0.7-0.7-1.2-1.1-1.8
						s-1.1-0.9-1.8-1.1c-0.7-0.2-1.3-0.4-2.4-0.4C13,2,12.7,2,10,2C7.2,2,6.9,2,5.9,2.2c-1.1,0-1.8,0.2-2.4,0.4
						C2.8,2.8,2.3,3.3,1.7,3.7S0.8,4.8,0.6,5.5C0.3,6.1,0.2,6.9,0.2,7.9C0,9,0,9.3,0,12s0,3,0.1,4.1c0,1.1,0.2,1.8,0.4,2.4
						c0.2,0.7,0.7,1.2,1.1,1.8s1.1,0.9,1.8,1.1s1.3,0.4,2.4,0.4C6.9,22,7.2,22,10,22s3,0,4.1-0.1c1.1,0,1.8-0.2,2.4-0.4
						c0.7-0.2,1.2-0.7,1.8-1.1s0.9-1.1,1.1-1.8c0.2-0.7,0.4-1.3,0.4-2.4S20,14.7,20,12S20,9,19.8,7.9"/>
					<path class="st2" d="M10,15.3c-1.1,0-2.2-0.7-2.9-1.7c-0.6-1-0.6-2.3,0-3.3S8.9,8.6,10,8.6c1.9,0,3.3,1.5,3.3,3.3
						S11.9,15.3,10,15.3 M10,6.8c-2.8,0-5.1,2.3-5.1,5.2s2.3,5.2,5.2,5.2s5.2-2.3,5.2-5.2S12.9,6.8,10,6.8 M15.6,5
						c-0.4,0-0.9,0.2-1.1,0.7c-0.2,0.4-0.2,0.9,0,1.3c0.2,0.4,0.7,0.7,1.1,0.7c0.7,0,1.3-0.6,1.3-1.3S16.3,5,15.6,5"/>
				</g>
			</g>
		</g>
	</g>
</g>
</svg>
