<?xml version="1.0" encoding="utf-8"?>
<!-- Generator: Adobe Illustrator 23.0.0, SVG Export Plug-In . SVG Version: 6.00 Build 0)  -->
<svg version="1.1" id="Layer_1" xmlns="http://www.w3.org/2000/svg" xmlns:xlink="http://www.w3.org/1999/xlink" x="0px" y="0px"
	 viewBox="0 0 149 34" style="enable-background:new 0 0 149 34;" xml:space="preserve">
<style type="text/css">
	.st0{fill-rule:evenodd;clip-rule:evenodd;fill:#FFFFFF;}
	.st1{filter:url(#Adobe_OpacityMaskFilter);}
	.st2{mask:url(#mask-2_1_);fill-rule:evenodd;clip-rule:evenodd;fill:#FFFFFF;}
	.st3{filter:url(#Adobe_OpacityMaskFilter_1_);}
	.st4{mask:url(#mask-4_1_);fill-rule:evenodd;clip-rule:evenodd;fill:#FFFFFF;}
</style>
<title>logo</title>
<desc>Created with Sketch.</desc>
<g id="Page-1">
	<g id="Home-HD" transform="translate(-1370.000000, -42.000000)">
		<g id="Nav-light">
			<g id="logo" transform="translate(1370.000000, 42.000000)">
				<g id="Group-13">
					<path id="Fill-1" class="st0" d="M18.2,1.8c-2.3-1.2-4.7-1.4-7.3-1.3c-0.3,0-0.4,0.2-0.4,0.4c0,0.7,0,1.3,0,2
						c0,1.3-0.1,1.2,1.2,1.1c1.2,0,2.4,0.1,3.6,0.6c1.8,0.7,3,2,3.4,3.9c0.3,1.2,0.3,2.4,0,3.7c-0.4,1.8-1.5,3.1-3.3,3.9
						c-0.4,0.2-0.8,0.3-1.2,0.4c-1,0.3-2.1,0.3-3.1,0.3c-3.4,0-6.9,0-10.3,0c-0.2,0-0.4,0-0.5,0C0.1,17,0,17.1,0,17.3
						c0,0.2,0,0.3,0,0.5c0,2.5,0,4.9,0,7.4c0,2.5,0,5.1,0,7.6c0,0.6,0,0.7,0.6,0.7c1,0,2,0,3.1,0c0.6,0,0.6,0,0.6-0.6
						c0-0.1,0-0.3,0-0.4c0-3.7,0-7.3,0-11c0-0.2,0-0.4,0-0.5c0-0.2,0.1-0.3,0.3-0.3c0.2,0,0.4,0,0.5,0c2.4,0,4.8,0,7.3,0
						c0.7,0,1.5-0.1,2.2-0.2c3-0.5,5.4-1.9,7-4.5c1.4-2.2,1.8-4.5,1.4-7C22.7,5.7,21.1,3.3,18.2,1.8"/>
					<g id="Group-5" transform="translate(134.205674, 0.473646)">
						<g id="Clip-4">
						</g>
						<defs>
							<filter id="Adobe_OpacityMaskFilter" filterUnits="userSpaceOnUse" x="0" y="0.1" width="14.8" height="32.9">
								<feColorMatrix  type="matrix" values="1 0 0 0 0  0 1 0 0 0  0 0 1 0 0  0 0 0 1 0"/>
							</filter>
						</defs>
						<mask maskUnits="userSpaceOnUse" x="0" y="0.1" width="14.8" height="32.9" id="mask-2_1_">
							<g class="st1">
								<polygon id="path-1_1_" class="st0" points="0,0.1 14.8,0.1 14.8,33 0,33 								"/>
							</g>
						</mask>
						<path id="Fill-3" class="st2" d="M14.8,0.9c0-0.8,0-0.8-0.8-0.8c-4.4,0-8.7,0-13.1,0c-0.1,0-0.3,0-0.4,0C0.1,0.1,0,0.2,0,0.5
							C0,0.7,0,0.8,0,1c0,5.2,0,10.3,0,15.5c0,5.1,0,10.2,0,15.3c0,0.2,0,0.4,0,0.6c0,0.5,0.1,0.5,0.5,0.5c1,0,1.9,0,2.9,0
							c1,0,0.9,0,0.9-0.9c0-9.1,0-18.2,0-27.4c0-0.2,0-0.4,0-0.5c0-0.3,0.1-0.4,0.4-0.4c0.1,0,9.5,0,9.5,0c0.5,0,0.5,0,0.5-0.5
							C14.8,2.4,14.8,1.6,14.8,0.9"/>
					</g>
					<g id="Group-8" transform="translate(50.327128, 0.081338)">
						<g id="Clip-7">
						</g>
						<defs>
							<filter id="Adobe_OpacityMaskFilter_1_" filterUnits="userSpaceOnUse" x="0.1" y="0" width="11.1" height="33.8">
								<feColorMatrix  type="matrix" values="1 0 0 0 0  0 1 0 0 0  0 0 1 0 0  0 0 0 1 0"/>
							</filter>
						</defs>
						<mask maskUnits="userSpaceOnUse" x="0.1" y="0" width="11.1" height="33.8" id="mask-4_1_">
							<g class="st3">
								<polygon id="path-3_1_" class="st0" points="0.1,0 11.2,0 11.2,33.9 0.1,33.9 								"/>
							</g>
						</mask>
						<path id="Fill-6" class="st4" d="M11.1,10.4C10.6,4.4,6,0.7,0.6,0.1c-0.4,0-0.5,0-0.5,0.4c0,0.9,0,1.9,0,2.8
							c0,0.4,0.2,0.5,0.5,0.6C1,3.9,1.4,4,1.8,4.2c2,0.6,3.6,1.8,4.5,3.8c0.5,1.1,0.7,2.2,0.7,3.4c0,3.3,0,6.7,0,10
							c0,0.6,0,1.3-0.1,1.9c-0.3,3.2-2.3,5.7-5.5,6.5C1.2,29.9,0.8,30,0.5,30c-0.3,0.1-0.4,0.2-0.4,0.5c0,1,0,2,0,3
							c0,0.3,0.2,0.4,0.4,0.4c0.3,0,0.6-0.1,0.9-0.1c5.9-1.1,9.8-5.8,9.8-11.7c0-1.8,0-3.5,0-5.3c0-1.7,0-3.5,0-5.2
							C11.2,11.1,11.2,10.7,11.1,10.4"/>
					</g>
					<path id="Fill-9" class="st0" d="M98.2,0.3c-2.3,0.5-4.4,1.5-5.9,3.3c-1.4,1.7-2,3.6-1.9,5.8c0.1,2.9,1.3,5.2,3.9,6.7
						c1.5,0.9,3.2,1.3,4.8,1.8c0.4,0.1,0.4,0.1,0.4-0.3c0-1,0-2.1,0-3.1c0-0.6,0-0.6-0.6-0.9c-0.9-0.3-1.9-0.7-2.6-1.3
						c-0.6-0.5-1.2-1.1-1.4-1.8c-0.7-1.9-0.3-4.6,2-5.9C97.6,4.2,98.3,4,99,3.8c0.6-0.1,0.6-0.1,0.6-0.7c0-0.4,0-0.8,0-1.1
						c0-0.2,0-0.4,0-0.5C99.5,0,99.9,0,98.2,0.3"/>
					<path id="Fill-11" class="st0" d="M99,30c-0.2,0-0.4-0.1-0.5-0.1c-2-0.5-3.8-1.5-5-3.2c-0.4-0.5-0.7-1-0.9-1.6
						c-0.1-0.3-0.2-0.4-0.6-0.3c-1,0.4-2,0.8-3,1.2c-0.3,0.1-0.4,0.2-0.3,0.6c0.2,0.5,0.4,0.9,0.6,1.4c2.1,3.8,5.7,5.4,9.8,5.9
						c0.3,0,0.4-0.1,0.4-0.3c0-0.5,0-1,0-1.5h0c0-0.4,0-0.9,0-1.3C99.6,30.1,99.5,30.1,99,30"/>
				</g>
			</g>
		</g>
	</g>
</g>
</svg>
