<?xml version="1.0" encoding="UTF-8"?>
<svg width="149px" height="34px" viewBox="0 0 149 34" version="1.1" xmlns="http://www.w3.org/2000/svg" xmlns:xlink="http://www.w3.org/1999/xlink">
    <!-- Generator: Sketch 52.4 (67378) - http://www.bohemiancoding.com/sketch -->
    <title>logo</title>
    <desc>Created with Sketch.</desc>
    <defs>
        <polygon id="path-1" points="0.000432207088 0.0800401025 14.7943262 0.0800401025 14.7943262 32.9508256 0.000432207088 32.9508256"></polygon>
        <polygon id="path-3" points="0.0694513072 0.0494307692 11.1941309 0.0494307692 11.1941309 33.8692308 0.0694513072 33.8692308"></polygon>
    </defs>
    <g id="Page-1" stroke="none" stroke-width="1" fill="none" fill-rule="evenodd">
        <g id="Home-HD" transform="translate(-1370.000000, -42.000000)">
            <g id="Nav-light">
                <g id="logo" transform="translate(1370.000000, 42.000000)">
                    <g id="Group-13">
                        <path d="M18.2128063,1.84986154 C15.935801,0.655023077 13.4700359,0.458346154 10.9538116,0.556030769 C10.6544907,0.567538462 10.578934,0.745123077 10.5805191,1.00352308 C10.5844818,1.67567692 10.5788019,2.34796154 10.5819721,3.02011538 C10.5880483,4.30675385 10.4439357,4.17088462 11.7468932,4.16016154 C12.9801059,4.14996154 14.1843905,4.27314615 15.339801,4.73162308 C17.1761467,5.46026923 18.3488613,6.76848462 18.7858223,8.67745385 C19.0636121,9.89138462 19.0568754,11.1265 18.7830483,12.3437 C18.369996,14.1799615 17.258176,15.4567923 15.5207673,16.2051846 C15.1260758,16.3751846 14.7185714,16.5080462 14.3008958,16.6144923 C13.2860315,16.8732846 12.2483152,16.9530538 11.2087496,16.9575 C7.76854034,16.9721462 4.32819902,16.9628615 0.887857713,16.9631231 C0.706891401,16.9631231 0.525660904,16.9611615 0.344826684,16.9673077 C0.128988032,16.9747615 0.0140678191,17.0919308 0.00561391844,17.3044308 C-0.000726507092,17.4610923 0.000726507092,17.6180154 0.000726507092,17.7748077 C0.000462322695,20.2395462 0.000594414894,22.7042846 0.000594414894,25.1690231 C0.000594414894,27.7011077 -0.00138696809,30.2330615 0.00191533688,32.7650154 C0.00283998227,33.4001615 0.0209366135,33.4175538 0.639656472,33.4209538 C1.65821941,33.4265769 2.67665027,33.4263154 3.69521321,33.4210846 C4.29874246,33.4180769 4.31248005,33.3992462 4.325293,32.8304 C4.32833112,32.6961 4.32582137,32.5615385 4.32582137,32.4271077 C4.32582137,28.7523615 4.32568927,25.0777462 4.32608555,21.403 C4.32608555,21.2238462 4.32278324,21.0443 4.33295434,20.8655385 C4.34457846,20.6581385 4.4589703,20.5323385 4.67256339,20.5195231 C4.85300133,20.5088 5.03436392,20.5115462 5.21533023,20.5114154 C7.6371086,20.5110231 10.058887,20.5047462 12.4806653,20.5150769 C13.2305527,20.5182154 13.9717221,20.4597615 14.7074756,20.3272923 C17.6689827,19.7942769 20.1198214,18.4514077 21.7438949,15.8672769 C23.1012744,13.7076231 23.5264792,11.3383462 23.1452611,8.83790769 C22.6686724,5.71173846 21.0579402,3.34285385 18.2128063,1.84986154" id="Fill-1" fill="#000000"></path>
                        <g id="Group-5" transform="translate(134.205674, 0.473646)">
                            <mask id="mask-2" fill="white">
                                <use xlink:href="#path-1"></use>
                            </mask>
                            <g id="Clip-4"></g>
                            <path d="M14.7915523,0.882090769 C14.7907598,0.0826984615 14.7900993,0.0813907692 13.9661082,0.08126 C9.59887589,0.0808676923 5.23177571,0.0811292308 0.86454344,0.0811292308 C0.72875266,0.0811292308 0.592829787,0.08636 0.457303191,0.0808676923 C0.149396277,0.0683138462 -0.0114920213,0.197906154 0.00237765957,0.515936923 C0.0091143617,0.672467692 0.00303812057,0.829521538 0.00303812057,0.986313846 C0.00290602837,6.16098308 0.00290602837,11.3356523 0.00290602837,16.5103215 C0.00290602837,21.6177754 0.00290602837,26.7252292 0.00303812057,31.8328138 C0.00303812057,32.0343292 -0.00369858156,32.2362369 0.00449113475,32.4374908 C0.0231161348,32.8919138 0.0593093972,32.94056 0.515820035,32.9455292 C1.48867908,32.9561215 2.4618023,32.9457908 3.43479344,32.9498446 C4.41610638,32.9537677 4.3446445,32.98476 4.34451241,32.0280523 C4.34385195,22.9106908 4.34411613,13.79346 4.34411613,4.67622923 C4.34411613,4.49707538 4.34781472,4.31779077 4.34398404,4.13863692 C4.33830408,3.87003692 4.45005408,3.71128308 4.73801507,3.70906 C4.87367376,3.70801385 14.2416525,3.70461385 14.2416525,3.70461385 C14.7418856,3.70108308 14.7828342,3.65884462 14.7890426,3.16702154 C14.7988174,2.40542154 14.7923449,1.64369077 14.7915523,0.882090769" id="Fill-3" fill="#000000" mask="url(#mask-2)"></path>
                        </g>
                        <g id="Group-8" transform="translate(50.327128, 0.081338)">
                            <mask id="mask-4" fill="white">
                                <use xlink:href="#path-3"></use>
                            </mask>
                            <g id="Clip-7"></g>
                            <path d="M11.1385954,10.3656323 C10.6305688,4.38856308 5.98911312,0.682824615 0.551405674,0.0655938462 C0.125672518,0.0172092308 0.0835351064,0.0559169231 0.0787797872,0.483793846 C0.0683445035,1.42467846 0.0873657801,2.36595538 0.0696654255,3.30657846 C0.062664539,3.67861692 0.227251418,3.81723231 0.576635284,3.87215538 C0.999726596,3.93871692 1.42281791,4.03064769 1.83151117,4.15723231 C3.86837287,4.78858615 5.4493844,5.97139385 6.37323723,7.91998615 C6.88271684,8.99451692 7.05773901,10.1448938 7.06196596,11.3173708 C7.07438262,14.6556477 7.06724965,17.9937938 7.06553245,21.3320708 C7.06526826,21.9806862 7.05126649,22.6270785 6.99763706,23.2762169 C6.73173546,26.49994 4.70028954,28.9389169 1.52439681,29.7938862 C1.1758055,29.8877785 0.818628191,29.9512015 0.464356915,30.0237785 C0.210475709,30.0758246 0.0711184397,30.2024092 0.0733640071,30.4809477 C0.081289539,31.4890477 0.0782514184,32.4972785 0.0765342199,33.5055092 C0.0760058511,33.8039246 0.234516489,33.9026554 0.511381738,33.8596323 C0.801588298,33.8145169 1.09232323,33.7707092 1.38107677,33.7173554 C7.24900851,32.6338015 11.1909039,27.9491246 11.1931495,22.0575785 C11.1938099,20.2876169 11.1932816,18.5177862 11.1932816,16.7478246 C11.1932816,15.0003554 11.1963197,13.2527554 11.1909039,11.5052862 C11.1897151,11.1252708 11.1708259,10.74434 11.1385954,10.3656323" id="Fill-6" fill="#000000" mask="url(#mask-4)"></path>
                        </g>
                        <path d="M98.2252119,0.329355385 C95.9032952,0.807447692 93.8660372,1.82430923 92.3279557,3.66148615 C90.9240798,5.33820923 90.3418174,7.28967846 90.3992775,9.46214769 C90.4772119,12.4091631 91.7141232,14.6675477 94.3065647,16.1677323 C95.8103023,17.0378708 97.4666064,17.4941246 99.1330816,17.92174 C99.5120541,18.0190323 99.5531348,17.9818938 99.5565691,17.5719323 C99.5651551,16.5412092 99.5611924,15.5102246 99.5589468,14.4795015 C99.5576259,13.8387323 99.554984,13.8386015 98.9510585,13.6267554 C98.008977,13.2963015 97.0948989,12.9110554 96.3020816,12.2908169 C95.6713413,11.7972938 95.1411232,11.2234785 94.855672,10.4631862 C94.1377509,8.55160154 94.5303289,5.91189385 96.9050824,4.57935538 C97.5622411,4.21058615 98.2595559,3.96421692 98.9927996,3.80219385 C99.5507571,3.67900923 99.5522101,3.67560923 99.5588147,3.09002462 C99.5630417,2.70909385 99.5596073,2.32816308 99.5596073,1.94710154 C99.5596073,1.76781692 99.5637021,1.58853231 99.5589468,1.40937846 C99.5214326,-0.00672153846 99.8593245,-0.00711384615 98.2252119,0.329355385" id="Fill-9" fill="#000000"></path>
                        <path d="M99.002799,29.9969577 C98.8259276,29.9592962 98.6481315,29.9254269 98.4724488,29.8826654 C96.4235668,29.3846962 94.71469,28.3705808 93.4722308,26.6495269 C93.1157139,26.1556115 92.8051652,25.6352808 92.5870809,25.0669577 C92.4795579,24.7869808 92.3396723,24.6804038 92.0274063,24.8048962 C91.0203354,25.2062269 90.0077166,25.5944808 88.9906066,25.9704423 C88.6935313,26.0802885 88.6068788,26.2194269 88.7298566,26.5226808 C88.9155783,26.9801115 89.0872981,27.4432962 89.3290269,27.8749654 C91.4720907,31.7008808 94.9893097,33.2932577 99.1712166,33.80365 C99.4340801,33.8358192 99.5538877,33.7105423 99.555737,33.4635192 C99.5595676,32.97065 99.5569258,32.4779115 99.5569258,31.9850423 L99.5595676,31.9850423 C99.5595676,31.5370269 99.5651155,31.0888808 99.5581146,30.6409962 C99.550057,30.1125577 99.5454338,30.1126885 99.002799,29.9969577" id="Fill-11" fill="#000000"></path>
                    </g>
                </g>
            </g>
        </g>
    </g>
</svg>