<?xml version="1.0" encoding="UTF-8"?>
<svg width="505px" height="682px" viewBox="0 0 505 682" version="1.1" xmlns="http://www.w3.org/2000/svg" xmlns:xlink="http://www.w3.org/1999/xlink">
    <!-- Generator: Sketch 52.4 (67378) - http://www.bohemiancoding.com/sketch -->
    <title>logo break down</title>
    <desc>Created with Sketch.</desc>
    <g id="Page-1" stroke="none" stroke-width="1" fill="none" fill-rule="evenodd">
        <g id="Home-HD" transform="translate(-568.000000, -182.000000)" fill="#FFFFFF">
            <g id="logo-break-down" transform="translate(568.000000, 182.000000)">
                <g id="Group-19">
                    <path d="M350.57479,661.956425 C349.666142,661.760813 348.753088,661.585467 347.85061,661.36342 C337.324929,658.780808 328.545156,653.518658 322.163472,644.590097 C320.332076,642.027751 318.735994,639.327066 317.615828,636.379663 C317.063236,634.925787 316.344955,634.373314 314.74006,635.020069 C309.566675,637.102195 304.364205,639.115593 299.139702,641.06643 C297.613245,641.636526 297.168175,642.359058 297.800086,643.931888 C298.754563,646.30479 299.636771,648.708531 300.878559,650.9475 C311.888088,670.796872 329.95616,679.058412 351.440252,681.706229 C352.790444,681.873645 353.40561,681.222485 353.416186,679.941312 C353.435575,677.385133 353.421474,674.827193 353.421474,672.271014 L353.435575,672.271014 C353.435575,669.946575 353.463777,667.622136 353.427643,665.297697 C353.386221,662.55648 353.362425,662.557361 350.57479,661.956425" id="Fill-1"></path>
                    <path d="M504.630019,414.282574 L504.618562,414.277287 C504.640595,410.958044 504.626494,407.63792 504.622969,404.318678 C504.618562,400.171166 504.615918,400.164998 500.382026,400.164117 C493.69364,400.163236 487.004373,400.164117 480.315988,400.164117 L480.304531,400.157949 C480.125621,400.15883 476.79597,400.161473 471.965421,400.164117 C459.002873,400.164117 446.039443,400.163236 433.076014,400.163236 C432.378885,400.163236 431.679993,400.190551 430.983745,400.162355 C430.556302,400.143851 430.194077,400.192313 429.880325,400.288357 C429.253702,400.409954 428.954932,400.691037 428.812157,401.27523 C428.694059,401.588915 428.627079,401.95723 428.646468,402.418946 C428.681721,403.231355 428.649993,404.046406 428.649993,404.859696 L428.66145,404.866745 C428.639417,408.185106 428.653518,411.50523 428.657044,414.824473 C428.66145,418.971985 428.664094,418.978153 432.897986,418.979034 L452.964024,418.979034 L452.975482,418.985202 C453.157035,418.98344 456.56248,418.981678 461.481162,418.979034 C474.389068,418.979034 487.296092,418.979915 500.203117,418.979915 C500.901127,418.979915 501.599138,418.9526 502.296267,418.980796 C502.724592,418.9993 503.085935,418.949957 503.400569,418.854794 C504.026311,418.732316 504.32508,418.452114 504.467855,417.86792 C504.585953,417.553355 504.652934,417.18592 504.632663,416.724205 C504.598291,415.911796 504.630019,415.096745 504.630019,414.282574" id="Fill-3"></path>
                    <path d="M17.7099887,77.4215388 C17.7099887,78.1185181 17.7373098,78.8172597 17.7091073,79.5133579 C17.6914808,79.9415904 17.7399538,80.3028566 17.835137,80.6183036 C17.9576414,81.2439109 18.2387845,81.5426163 18.8222225,81.6844793 C19.136856,81.8025517 19.5043691,81.8703992 19.9670654,81.8501331 C20.7796483,81.8148876 21.5939939,81.8466085 22.4083394,81.8466085 L22.4136274,81.8360349 C25.7344651,81.8580633 29.0544215,81.843084 32.3743778,81.8404406 C36.522781,81.8360349 36.5298316,81.8325103 36.5298316,77.6004096 C36.5307129,70.9125801 36.5307129,64.2256318 36.5307129,57.5378023 L36.5360009,57.5272287 C36.5351195,57.3474767 36.5333569,54.0185413 36.5307129,49.1899109 C36.5307129,36.2292674 36.5315942,23.268624 36.5307129,10.3088618 C36.5307129,9.61100129 36.5033918,8.91314083 36.5324756,8.21704264 C36.5501021,7.78881008 36.5016291,7.42754393 36.4055646,7.11297804 C36.2839415,6.4873708 36.0027984,6.18866537 35.4184791,6.04592119 C35.1047269,5.92784884 34.7363325,5.86000129 34.2745175,5.88026744 C33.4619346,5.91551292 32.6467077,5.88379199 31.8332435,5.88379199 L31.8270742,5.89436563 C28.5071178,5.87321835 25.1862801,5.88731654 21.8663237,5.88995995 C17.7179206,5.89524677 17.7117513,5.89789018 17.71087,10.129991 L17.71087,30.1925982 L17.7047007,30.2031718 C17.7064634,30.384686 17.708226,33.7893992 17.71087,38.7079057 C17.71087,51.6121563 17.7099887,64.5172881 17.7099887,77.4215388" id="Fill-6"></path>
                    <path d="M428.626902,1.88669044 C428.629546,0.338532817 427.815201,-0.173407752 426.39274,0.0495198966 C424.901536,0.283902326 423.408569,0.511235659 421.924415,0.787912661 C391.78041,6.40868527 371.529293,30.7139669 371.517836,61.2797266 C371.514311,70.0972641 371.516955,78.9139204 371.516955,87.7305767 L392.706684,87.7305767 C392.710209,80.1677783 392.718141,72.605861 392.722548,65.0439437 C392.724311,61.6788817 392.796579,58.3252744 393.071553,54.957569 C394.437609,38.2327085 404.873394,25.5787008 421.188508,21.1430574 C422.979363,20.6557886 424.814284,20.3271245 426.634223,19.9508791 C427.939468,19.6812512 428.654223,19.023923 428.642766,17.5788584 C428.602225,12.3484295 428.618089,7.11800052 428.626902,1.88669044" id="Fill-8"></path>
                    <path d="M132.913709,503.633562 C130.405454,503.277582 127.931571,503.115453 125.492059,503.135719 C123.053429,503.155986 120.58219,503.36129 118.080986,503.761327 C104.609031,505.911301 94.4464572,512.879332 88.1079581,525.084841 C83.0350436,534.854006 82.277103,545.393285 82.7900349,556.135226 C82.8508464,557.414637 83.6202443,557.730084 84.7351222,557.713342 C87.6355672,557.671929 90.5368935,557.671929 93.4373386,557.633159 C98.9888133,557.560024 98.4071379,558.180345 98.3137173,552.615084 C98.2247033,547.348528 98.7120768,542.200926 100.648351,537.249818 C103.725061,529.379502 109.326771,524.322657 117.548665,522.385918 C120.22966,521.754143 122.937094,521.447507 125.648935,521.444864 C128.360777,521.401688 131.073499,521.660743 133.76507,522.246699 C142.018691,524.043337 147.70589,529.002376 150.917443,536.818942 C152.937443,541.736567 153.513831,546.875358 153.515593,552.142794 C153.516475,557.708055 152.925105,557.097427 158.476579,557.07628 C161.377024,557.064825 164.277469,557.015482 167.178796,557.008433 C168.293674,557.004908 169.056902,556.676244 169.096562,555.396833 C169.425297,544.646081 168.486684,534.122663 163.24808,524.442492 C156.701588,512.345363 146.420035,505.553559 132.913709,503.633562" id="Fill-11"></path>
                    <path d="M218.8269,134.648828 C209.099701,129.494177 198.566088,128.645642 187.816551,129.066826 C186.537746,129.117051 186.215181,129.882759 186.22135,130.997397 C186.238976,133.8981 186.214299,136.797921 186.228401,139.697743 C186.253959,145.248906 185.638793,144.662069 191.204369,144.61625 C196.472938,144.572193 201.61724,145.103518 206.553549,147.081671 C214.398235,150.225567 219.407694,155.86925 221.274343,164.104356 C221.883339,166.790942 222.167127,169.500438 222.146856,172.212578 C222.167127,174.922955 221.883339,177.633332 221.274343,180.319038 C219.407694,188.554144 214.398235,194.198707 206.553549,197.342604 C201.61724,199.319875 196.472938,199.852082 191.204369,199.808025 C190.893261,199.805381 190.607711,199.800976 190.333619,199.795689 L190.333619,199.775423 L189.197589,199.775423 C188.788654,199.769255 188.426428,199.76573 188.122371,199.775423 L141.984936,199.775423 L141.984936,215.450849 L190.333619,215.450849 L190.333619,215.42794 C200.207999,215.616503 209.860285,214.527418 218.8269,209.775446 C230.981271,203.334335 237.861786,193.114027 239.898531,179.627345 C240.27662,177.123154 240.460818,174.650684 240.460818,172.212578 C240.460818,169.77271 240.27662,167.30112 239.898531,164.796929 C237.861786,151.310247 230.981271,141.08994 218.8269,134.648828" id="Fill-13"></path>
                    <path d="M32.6075768,273.009975 C22.8803778,267.855324 12.3467653,267.006789 1.59722775,267.427972 C0.318423211,267.477316 -0.00414223386,268.243905 0.00202705061,269.358543 C0.0196535777,272.258365 -0.00502356021,275.159068 0.00907766143,278.05889 C0.0346361257,283.609171 -0.580529668,283.023215 4.98592757,282.977396 C10.2536152,282.933339 15.3979171,283.464665 20.334226,285.442817 C28.1789119,288.585833 33.1883709,294.230396 35.0559014,302.465502 C35.6640166,305.152089 35.9478037,307.861585 35.9275332,310.572843 C35.9478037,313.284102 35.6640166,315.993598 35.0559014,318.680184 C33.1883709,326.91529 28.1789119,332.558972 20.334226,335.70375 C15.3979171,337.681021 10.2536152,338.212347 4.98592757,338.16829 C-0.580529668,338.122471 0.0346361257,337.536515 0.00907766143,343.086797 C-0.00502356021,345.986618 0.0196535777,348.887321 0.00202705061,351.787143 C-0.00414223386,352.901781 0.318423211,353.66837 1.59722775,353.718595 C12.3467653,354.138897 22.8803778,353.291244 32.6075768,348.136593 C44.7619485,341.6946 51.6433447,331.475174 53.6792086,317.987611 C54.0572976,315.483419 54.2414948,313.01183 54.2414948,310.572843 C54.2414948,308.133856 54.0572976,305.662267 53.6792086,303.158076 C51.6433447,289.670512 44.7619485,279.451086 32.6075768,273.009975" id="Fill-15"></path>
                    <path d="M306.480446,419.827833 C306.477802,381.843782 306.478683,328.486534 306.478683,290.501601 L288.570132,290.501601 C288.56925,312.060379 288.570132,333.619156 288.570132,355.177934 C288.570132,376.45651 288.56925,397.735968 288.570132,419.014544 C288.570132,419.854267 288.541929,420.694872 288.576301,421.533714 C288.652095,423.427278 288.801921,423.629939 290.685315,423.651087 C294.698875,423.695143 298.713317,423.651968 302.726877,423.667828 C306.774809,423.68457 306.480446,423.814097 306.480446,419.827833" id="Fill-17"></path>
                </g>
            </g>
        </g>
    </g>
</svg>