<?xml version="1.0" encoding="utf-8"?>
<!-- Generator: Adobe Illustrator 23.0.0, SVG Export Plug-In . SVG Version: 6.00 Build 0)  -->
<svg version="1.1" id="Layer_1" xmlns="http://www.w3.org/2000/svg" xmlns:xlink="http://www.w3.org/1999/xlink" x="0px" y="0px"
	 viewBox="0 0 63 63" style="enable-background:new 0 0 63 63;" xml:space="preserve">
<style type="text/css">
	.st0{fill:#FFFFFF;}
	.st1{fill-rule:evenodd;clip-rule:evenodd;fill:#FF301D;}
	.st2{fill-rule:evenodd;clip-rule:evenodd;fill:#FFFFFF;}
</style>
<g>
	<rect x="22.5" y="22.5" class="st0" width="6" height="18"/>
	<rect x="34.5" y="22.5" class="st0" width="6" height="18"/>
</g>
<title>play-right-arrow-control-circular-button copy 5</title>
<desc>Created with Sketch.</desc>
<g id="Page-1">
	<g id="Home-HD" transform="translate(-252.000000, -746.000000)">
		<g id="Play-showreel-Copy" transform="translate(209.000000, 746.000000)">
			<g id="Video-play">
				<g id="play-right-arrow-control-circular-button-copy-6" transform="translate(43.000000, 0.000000)">
					<path id="play-right-arrow-control-circular-button-copy-5" class="st1" d="M31.5,0C14.1,0,0,14.1,0,31.5
						C0,48.9,14.1,63,31.5,63C48.9,63,63,48.9,63,31.5C63,14.1,48.9,0,31.5,0z M31.5,57.8C17,57.8,5.2,46,5.2,31.5
						C5.2,17,17,5.2,31.5,5.2C46,5.2,57.8,17,57.8,31.5C57.8,46,46,57.8,31.5,57.8z"/>
					<polygon id="Path" class="st2" points="26.8,39.7 40.6,31.1 26.8,22.4 					"/>
				</g>
			</g>
		</g>
	</g>
</g>
</svg>
