<?xml version="1.0" encoding="UTF-8"?>
<svg width="1041px" height="522px" viewBox="0 0 1041 522" version="1.1" xmlns="http://www.w3.org/2000/svg" xmlns:xlink="http://www.w3.org/1999/xlink">
    <!-- Generator: Sketch 52.4 (67378) - http://www.bohemiancoding.com/sketch -->
    <title>scatter</title>
    <desc>Created with Sketch.</desc>
    <g id="Page-1" stroke="none" stroke-width="1" fill="none" fill-rule="evenodd">
        <g id="Home-HD" transform="translate(-120.000000, -1569.000000)" fill="#FFFFFF">
            <g id="scatter" transform="translate(120.000000, 1569.741656)">
                <g>
                    <polygon id="Fill-1" points="228.037291 111.087246 216.8403 99.8929211 304.243733 12.5084301 315.440724 23.7033786"></polygon>
                    <polygon id="Fill-2" points="375.199367 69.7141677 502.762433 69.7141677 502.762433 53.8813832 375.199367 53.8813832"></polygon>
                    <polygon id="Fill-3" points="822.149097 124.384226 837.985653 124.384226 837.985653 0 822.149097 0"></polygon>
                    <polygon id="Fill-4" points="679.03238 108.724651 590.053092 19.7665528 601.250083 8.57222826 690.229371 97.5303265"></polygon>
                    <polygon id="Fill-5" points="101.098013 108.724651 12.1187254 19.7665528 23.3157164 8.57222826 112.295004 97.5303265"></polygon>
                    <polygon id="Fill-6" points="790.783168 307.662605 779.586177 296.46828 869.352456 206.724626 880.550071 217.918951"></polygon>
                    <polygon id="Fill-7" points="935.203195 508.058298 924.006204 496.863973 1013.77248 407.120319 1024.9701 418.314644"></polygon>
                    <polygon id="Fill-8" points="597.603275 322.533941 613.439831 322.533941 613.439831 191.853414 597.603275 191.853414"></polygon>
                    <polygon id="Fill-9" points="478.264982 307.662605 388.498704 217.918951 399.695695 206.724626 489.461973 296.46828"></polygon>
                    <polygon id="Fill-10" points="163.168013 265.10851 295.455522 265.10851 295.455522 249.275726 163.168013 249.275726"></polygon>
                    <polygon id="Fill-11" points="908.344272 66.5650814 1040.63178 66.5650814 1040.63178 50.732297 908.344272 50.732297"></polygon>
                    <polygon id="Fill-12" points="305.81965 508.05836 218.414344 420.673869 229.61196 409.479544 317.016641 496.864035"></polygon>
                    <polygon id="Fill-13" points="431.062622 520.566977 446.899178 520.566977 446.899178 399.333709 431.062622 399.333709"></polygon>
                    <polygon id="Fill-14" points="54.2886493 325.724832 70.125205 325.724832 70.125205 204.491564 54.2886493 204.491564"></polygon>
                    <polygon id="Fill-15" points="565.054426 508.846911 553.857435 497.652586 640.475125 411.053651 651.672116 422.247975"></polygon>
                    <polygon id="Fill-16" points="705.917827 466.685594 830.331682 466.685594 830.331682 450.85281 705.917827 450.85281"></polygon>
                    <polygon id="Fill-17" points="0 466.685594 124.413854 466.685594 124.413854 450.85281 0 450.85281"></polygon>
                </g>
            </g>
        </g>
    </g>
</svg>