<?xml version="1.0" encoding="utf-8"?>
<!-- Generator: Adobe Illustrator 23.0.0, SVG Export Plug-In . SVG Version: 6.00 Build 0)  -->
<svg version="1.1" id="Layer_1" xmlns="http://www.w3.org/2000/svg" xmlns:xlink="http://www.w3.org/1999/xlink" x="0px" y="0px"
	 viewBox="0 0 20 24" style="enable-background:new 0 0 20 24;" xml:space="preserve">
<style type="text/css">
	.st0{display:none;}
	.st1{display:inline;}
	.st2{fill:#FFFFFF;}
</style>
<g id="_x30_1" class="st0">
	<g id="Home-HD" transform="translate(-207.000000, -52.000000)" class="st1">
		<g id="Nav-light">
			<g id="facebook" transform="translate(207.000000, 52.000000)">
				<path class="st2" d="M14.5,6.7h-1.6c-1.3,0-1.5,0.6-1.5,1.4v1.8h3L14,12.7h-2.7V20H8.2v-7.3H5.5V9.9h2.7V7.8
					C8.1,5.3,9.7,4,12.1,4c1.1,0,2.1,0.1,2.4,0.1V6.7L14.5,6.7L14.5,6.7z"/>
			</g>
		</g>
	</g>
</g>
<g id="_x30_2" class="st0">
	<g id="Home-HD_1_" transform="translate(-123.000000, -51.000000)" class="st1">
		<g id="Nav-light_1_">
			<g id="instagram" transform="translate(123.000000, 51.000000)">
				<g id="Shape">
					<path class="st2" d="M17.3,15.6c0,0.9-0.2,1.4-0.3,1.7c-0.2,0.4-0.4,0.7-0.7,1c-0.3,0.3-0.6,0.5-1,0.7
						c-0.3,0.1-0.8,0.3-1.7,0.3s-1.2,0.1-3.6,0.1s-2.7,0-3.6-0.1c-0.9,0-1.4-0.2-1.7-0.3c-0.4-0.1-0.7-0.4-1-0.7s-0.5-0.6-0.7-1
						c-0.1-0.3-0.3-0.8-0.3-1.7c0-0.9-0.1-1.2-0.1-3.6s0-2.7,0.1-3.6C2.7,7.5,2.9,7,3,6.7c0.2-0.4,0.4-0.7,0.7-1
						C4,5.4,4.3,5.2,4.7,5C5,4.9,5.5,4.7,6.4,4.7S7.6,4.6,10,4.6s2.7,0,3.6,0.1c0.9,0,1.4,0.2,1.7,0.3c0.4,0.2,0.7,0.4,1,0.7
						c0.3,0.3,0.5,0.6,0.7,1c0.1,0.3,0.3,0.8,0.3,1.7s0.1,1.2,0.1,3.6S17.3,14.7,17.3,15.6 M18.9,8.3c0-1-0.2-1.6-0.4-2.2
						c-0.2-0.6-0.6-1.1-1-1.6s-1-0.8-1.6-1s-1.2-0.4-2.2-0.4C12.7,3,12.4,3,10,3C7.5,3,7.2,3,6.3,3.1c-1,0-1.6,0.2-2.2,0.4
						S3,4.1,2.5,4.5s-0.8,1-1,1.6C1.2,6.7,1.1,7.4,1.1,8.3C1,9.3,1,9.6,1,12s0,2.7,0.1,3.7c0,1,0.2,1.6,0.4,2.2s0.6,1.1,1,1.6
						s1,0.8,1.6,1s1.2,0.4,2.2,0.4C7.2,21,7.5,21,10,21s2.7,0,3.7-0.1c1,0,1.6-0.2,2.2-0.4c0.6-0.2,1.1-0.6,1.6-1s0.8-1,1-1.6
						s0.4-1.2,0.4-2.2S19,14.4,19,12S19,9.3,18.9,8.3"/>
					<path class="st2" d="M10,15c-1,0-2-0.6-2.6-1.5c-0.5-0.9-0.5-2.1,0-3S9,8.9,10,8.9c1.7,0,3,1.4,3,3S11.7,15,10,15 M10,7.3
						c-2.5,0-4.6,2.1-4.6,4.7s2.1,4.7,4.7,4.7s4.7-2.1,4.7-4.7S12.6,7.3,10,7.3 M15.1,5.7c-0.4,0-0.8,0.2-1,0.6s-0.2,0.8,0,1.2
						s0.6,0.6,1,0.6c0.6,0,1.2-0.5,1.2-1.2S15.7,5.7,15.1,5.7"/>
				</g>
			</g>
		</g>
	</g>
</g>
<g id="Page-1">
	<g id="Home-HD_2_" transform="translate(-164.000000, -51.000000)">
		<g id="Nav-light_2_">
			<g id="vimeo" transform="translate(164.000000, 51.000000)">
				<path d="M20,7c-0.1,2.1-1.4,5-4.1,8.8c-2.7,3.9-5,5.8-6.9,5.8c-1.1,0-2.1-1.2-3-3.5l-1.6-6.4C3.9,9.2,3.2,8,2.6,8
					C2.5,8,1.9,8.3,1,9L0,7.8c1-1,2-1.9,2.9-2.9c1.3-1.2,2.3-1.9,3-2c1.6-0.1,2.5,1,2.9,3.4c0.4,2.7,0.7,4.3,0.8,5
					c0.4,2.2,0.9,3.3,1.4,3.3c0.4,0,1-0.7,1.9-2.2c0.9-1.4,1.3-2.5,1.3-3.3c0.1-1.2-0.3-1.9-1.3-1.9c-0.4,0-1,0.1-1.4,0.3
					c1-3.5,2.9-5.2,5.6-5.1C19.1,2.8,20.1,4.2,20,7L20,7z"/>
			</g>
		</g>
	</g>
</g>
</svg>
