<?xml version="1.0" encoding="UTF-8"?>
<svg width="18px" height="17px" viewBox="0 0 18 17" version="1.1" xmlns="http://www.w3.org/2000/svg" xmlns:xlink="http://www.w3.org/1999/xlink">
    <!-- Generator: Sketch 52.4 (67378) - http://www.bohemiancoding.com/sketch -->
    <title>vimeo</title>
    <desc>Created with Sketch.</desc>
    <g id="Page-1" stroke="none" stroke-width="1" fill="none" fill-rule="evenodd">
        <g id="Home-HD" transform="translate(-164.000000, -51.000000)" fill="#000000">
            <g id="Nav-light">
                <g id="vimeo" transform="translate(164.000000, 51.000000)">
                    <path d="M17.988829,3.93180172 C17.9086676,5.84446978 16.6852343,8.46439999 14.3185288,11.7907423 C11.8716621,15.2632974 9.80147582,17 8.10797008,17 C7.05886817,17 6.17008896,15.9425071 5.44630203,13.8275212 L3.99328033,8.00961003 C3.45394233,5.89547427 2.87802585,4.83543112 2.25930477,4.83543112 C2.12466484,4.83543112 1.65381421,5.14570839 0.846752874,5.76201254 L-1.42108547e-14,4.57190797 C0.881161129,3.72621625 1.75647526,2.87328376 2.62586783,2.01318314 C3.81038793,0.895334913 4.70072368,0.307083225 5.29298373,0.248428071 C6.69386165,0.101365149 7.55540156,1.14695702 7.87838175,3.38520369 C8.22860123,5.79941583 8.46986354,7.30234789 8.60606,7.89059957 C9.01075807,9.89337555 9.45436941,10.8947635 9.93922882,10.8947635 C10.3151311,10.8947635 10.8809301,10.2453065 11.6358476,8.9446922 C12.3907652,7.64577806 12.7939067,6.65629112 12.8483853,5.97793151 C12.9573425,4.85583291 12.5526444,4.29478362 11.639739,4.29478362 C11.2085799,4.29478362 10.7641903,4.40189303 10.3073484,4.61611185 C11.1922363,1.45213384 12.8818507,-0.0848012094 15.3761917,0.00360655886 C17.226907,0.0614116381 18.0985644,1.37222682 17.9911638,3.93095165 L17.988829,3.93180172 Z"></path>
                </g>
            </g>
        </g>
    </g>
</svg>